# xmcd CD database file
#
# Track frame offsets:
#	150
#	24145
#	60443
#	77700
#	93306
#	124444
#	141133
#	168104
#	191625
#	217851
#	237311
#	265259
#
# Disc length: 3743 seconds
#
# Revision: 0
# Processed by: cddbd v1.5.2PL0 Copyright (c) Steve Scherf et al.
# Submitted via: CDex 1.51
#
DISCID=990e9d0c
DTITLE=George Benson - Greatest Hits Disc 1
DYEAR=2008
DGENRE=Jazz
TTITLE0=Breezin'
TTITLE1=This Masquerade
TTITLE2=Everything Must Change
TTITLE3=Lady Blue
TTITLE4=Affirmation
TTITLE5=Dinorah, Dinorah
TTITLE6=Nature Boy
TTITLE7=On Broadway
TTITLE8=We All Remember Wes
TTITLE9=Love Ballad
TTITLE10=Nassau Day
TTITLE11=Moody's Mood
EXTD=YEAR: 2008
EXTT0=
EXTT1=
EXTT2=
EXTT3=
EXTT4=
EXTT5=
EXTT6=
EXTT7=
EXTT8=
EXTT9=
EXTT10=
EXTT11=
PLAYORDER=
